<svg version="1.1" xmlns="http://www.w3.org/2000/svg" xmlns:xlink="http://www.w3.org/1999/xlink" x="0px" y="0px"
 viewBox="0 0 192 64" style="enable-background:new 0 0 192 64;" xml:space="preserve">
<path id="XMLID_6_" fill="#757575" d="M79.8,48.7c-2.2,0-4.4-0.7-6.5-2.2c-2.1-1.5-3.5-3.5-4.2-6.1l3.6-1.5c0.4,1.7,1.3,3.1,2.6,4.2
  c1.3,1.2,2.8,1.7,4.5,1.7c1.7,0,3.2-0.4,4.4-1.3c1.2-0.9,1.8-2.1,1.8-3.6c0-1.7-0.6-3-1.8-3.9c-1.2-0.9-3.1-1.8-5.7-2.6
  c-2.7-0.9-4.8-2-6.1-3.3c-1.4-1.4-2.1-3.1-2.1-5.2c0-2.2,0.9-4.1,2.6-5.7c1.7-1.6,4-2.4,6.8-2.4c2.6,0,4.7,0.6,6.3,1.9
  c1.6,1.3,2.7,2.7,3.2,4.2l-3.6,1.5c-0.3-1-0.9-1.9-1.9-2.7c-1-0.8-2.3-1.2-3.9-1.2c-1.5,0-2.8,0.4-3.9,1.3
  c-1.1,0.8-1.6,1.9-1.6,3.1c0,1.1,0.5,2.1,1.5,2.9c1,0.8,2.4,1.5,4.3,2.1c1.5,0.5,2.8,1,3.8,1.4c1,0.5,2,1.1,3.1,1.8
  c1,0.8,1.8,1.7,2.3,2.8c0.5,1.1,0.8,2.4,0.8,3.9c0,1.5-0.3,2.8-0.9,4c-0.6,1.2-1.4,2.1-2.4,2.8c-1,0.7-2.1,1.2-3.3,1.6
  C82.2,48.5,81,48.7,79.8,48.7z M94.9,29.6c2-2.1,4.6-3.2,7.7-3.2c3.1,0,5.7,1.1,7.7,3.2c2,2.1,3,4.8,3,8c0,3.2-1,5.8-3,8
  c-2,2.1-4.6,3.2-7.7,3.2c-3.1,0-5.7-1.1-7.7-3.2c-2-2.1-3-4.8-3-8C91.9,34.4,92.9,31.7,94.9,29.6z M97.8,43c1.4,1.4,3,2.1,4.8,2.1
  c1.8,0,3.4-0.7,4.8-2.1c1.4-1.4,2-3.2,2-5.5c0-2.3-0.7-4.1-2-5.5c-1.4-1.4-3-2.1-4.8-2.1c-1.8,0-3.4,0.7-4.8,2.1
  c-1.4,1.4-2,3.2-2,5.5C95.8,39.8,96.5,41.6,97.8,43z M134.2,48h-3.8v-2.9h-0.2c-0.6,1-1.5,1.8-2.7,2.5c-1.2,0.7-2.5,1-3.9,1
  c-2.6,0-4.6-0.8-6-2.4c-1.4-1.6-2-3.7-2-6.4V27.1h3.9v12.2c0,3.9,1.7,5.8,5.2,5.8c1.6,0,2.9-0.7,4-2c1-1.3,1.5-2.8,1.5-4.5V27.1
  h3.9V48z M141.8,48h-3.9V27.1h3.8v3.4h0.2c0.4-1.1,1.2-2.1,2.5-2.8c1.2-0.7,2.4-1.1,3.6-1.1c1.2,0,2.1,0.2,2.9,0.5l-1.5,3.7
  c-0.5-0.2-1.2-0.3-2.1-0.3c-1.4,0-2.7,0.6-3.8,1.7c-1.1,1.1-1.6,2.6-1.6,4.4V48z M160.9,48.7c-3.1,0-5.7-1.1-7.7-3.2
  c-2-2.1-3-4.8-3-8c0-3.2,1-5.8,3-8c2-2.1,4.6-3.2,7.7-3.2c2.3,0,4.3,0.6,5.8,1.7c1.5,1.1,2.7,2.6,3.4,4.3l-3.6,1.5
  c-1.1-2.6-3-3.9-5.8-3.9c-1.7,0-3.3,0.7-4.6,2.1c-1.3,1.4-2,3.2-2,5.4s0.7,4,2,5.4c1.3,1.4,2.9,2.1,4.6,2.1c2.9,0,4.9-1.3,6.1-3.9
  l3.5,1.5c-0.7,1.7-1.9,3.1-3.4,4.3S163.2,48.7,160.9,48.7z M181.8,48.7c-3.2,0-5.7-1.1-7.7-3.2c-2-2.1-3-4.8-3-8c0-3,1-5.7,2.9-7.9
  c1.9-2.2,4.4-3.3,7.4-3.3c3.1,0,5.6,1,7.4,3c1.9,2,2.8,4.7,2.8,8.1l0,0.7H175c0.1,2.1,0.8,3.8,2.1,5c1.3,1.2,2.8,1.8,4.5,1.8
  c2.8,0,4.7-1.2,5.7-3.6l3.5,1.5c-0.7,1.6-1.8,3-3.4,4.1S184,48.7,181.8,48.7z M187.4,35c-0.1-1.2-0.6-2.3-1.6-3.4
  c-1-1.1-2.5-1.6-4.5-1.6c-1.5,0-2.7,0.5-3.8,1.4c-1.1,0.9-1.8,2.1-2.2,3.7H187.4z"/>
<path id="Android" fill="#78C257" d="M3.9,20.7c-2.2,0-3.9,1.8-3.9,3.9l0,16.5c0,2.2,1.8,4,4,4c2.2,0,4-1.8,3.9-4l0-16.5
  C7.9,22.5,6.1,20.7,3.9,20.7 M35.8,5.8l2.8-5c0.1-0.3,0.1-0.6-0.2-0.7c-0.3-0.1-0.6,0-0.7,0.2l-2.8,5.1c-2.3-1-5-1.6-7.7-1.6
  c-2.8,0-5.4,0.6-7.7,1.6l-2.8-5.1c-0.1-0.3-0.5-0.4-0.7-0.2c-0.3,0.1-0.4,0.5-0.2,0.7l2.8,5C12.9,8.6,9.3,14,9.3,20.1l35.6,0
  C44.9,14,41.2,8.6,35.8,5.8 M19,13.6c-0.8,0-1.5-0.7-1.5-1.5c0-0.8,0.7-1.5,1.5-1.5c0.8,0,1.5,0.7,1.5,1.5
  C20.5,13,19.8,13.6,19,13.6 M35.2,13.6c-0.8,0-1.5-0.7-1.5-1.5c0-0.8,0.7-1.5,1.5-1.5c0.8,0,1.5,0.7,1.5,1.5
  C36.7,13,36,13.6,35.2,13.6 M9.4,21.4l0,25.6c0,2.3,1.9,4.2,4.2,4.2l2.9,0l0,8.8c0,2.2,1.8,4,3.9,4c2.2,0,4-1.8,4-4l0-8.8l5.3,0
  l0,8.8c0,2.2,1.8,4,3.9,3.9c2.2,0,4-1.8,4-4l0-8.7l2.9,0c2.3,0,4.2-1.9,4.2-4.2l0-25.6L9.4,21.4z M54.2,24.6c0-2.2-1.8-3.9-3.9-3.9
  c-2.2,0-3.9,1.8-3.9,4l0,16.5c0,2.2,1.8,3.9,3.9,3.9c2.2,0,3.9-1.8,3.9-4L54.2,24.6z"/>
</svg>
